<svg height="60" viewBox="0 0 60 60" width="60" xmlns="http://www.w3.org/2000/svg"><g fill="none" fill-rule="evenodd"><path d="m.22458069 30c0-16.5685433 13.23036031-30 29.55083861-30s29.5508386 13.4314567 29.5508386 30-13.2303603 30-29.5508386 30-29.55083861-13.4314567-29.55083861-30zm0 0" fill="#fff"/><path d="m35.0384324 31.6384006 12.1746824 8.9380258v-20.5764264zm-21.2679406-11.6384006v20.5764264l12.1744211-8.9392773zm16.7213115 15.9844891-2.9066996-2.7779674-13.8146119 8.7934783h33.442623l-13.8149386-8.7934783zm15.7180328-15.9844891h-31.4360656l15.7180328 12.4549304zm0 0" fill="#333"/><path d="m59.3262579 30c0 16.5685433-13.2303603 30-29.5508386 30-6.0528788 0-11.6807142-1.8474866-16.3660949-5.0172246l33.8602214-49.16336437c7.311898 5.46123927 12.0567121 14.25838627 12.0567121 24.18058897zm0 0" fill="#000" fill-opacity=".08"/></g></svg>